<?xml version="1.0" encoding="UTF-8" standalone="no"?>
<!DOCTYPE svg PUBLIC "-//W3C//DTD SVG 1.1//EN" "http://www.w3.org/Graphics/SVG/1.1/DTD/svg11.dtd">
<!-- Created with Vectornator (http://vectornator.io/) -->
<svg height="100%" stroke-miterlimit="10" style="fill-rule:nonzero;clip-rule:evenodd;stroke-linecap:round;stroke-linejoin:round;" version="1.1" viewBox="0 0 47.4091 65.2156" width="100%" xml:space="preserve" xmlns="http://www.w3.org/2000/svg" xmlns:vectornator="http://vectornator.io" xmlns:xlink="http://www.w3.org/1999/xlink">
<defs>
<linearGradient gradientTransform="matrix(1.40498 0.0136562 0.0543824 1.05195 -251.675 -176.705)" gradientUnits="userSpaceOnUse" id="LinearGradient" x1="182.594" x2="194.599" y1="196.701" y2="196.701">
<stop offset="0" stop-color="#2f62c3"/>
<stop offset="1" stop-color="#6133c3"/>
</linearGradient>
</defs>
<g id="Layer-1" vectornator:layerName="Layer 1">
<path d="M20.732 21.6573C22.7176 12.8621 25.2676 4.38834 19.2883 2.98702C21.9959 1.23954 27.4235 2.62991 29.0112 5.05155C30.4755 7.04504 30.1427 9.50239 29.9613 11.9208C28.8931 17.8515 27.8228 23.7822 26.7545 29.713C25.5238 36.5435 24.3512 42.8089 23.9943 49.7402C23.7051 55.3275 24.3735 60.4559 32.0525 62.2163C32.468 62.3121 32.8962 62.3794 33.3057 62.4795C34.0374 62.6575 34.2574 62.8643 33.5399 63.1215C33.0045 63.313 32.6548 63.3226 32.0678 63.358C24.6951 63.8079 20.0955 61.7569 17.9427 57.4977C16.2243 54.0986 16.4301 50.0481 16.6472 46.5275C16.8 44.0577 17.0945 41.6237 17.4725 39.2116C18.3703 33.4833 19.4509 27.3264 20.732 21.6573Z" fill="url(#LinearGradient)" fill-rule="evenodd" opacity="1" stroke="none"/>
<path d="M14.6318 21.2083C16.706 12.4361 19.338 3.97928 13.3854 2.61855C16.1062 0.861479 21.5075 2.2151 23.0664 4.61984C24.5059 6.59648 24.1491 9.0456 23.9428 11.4558C22.8139 17.3707 21.6861 23.285 20.5581 29.1993C19.2577 36.0113 18.0212 42.2588 17.5926 49.1657C17.2477 54.7332 17.86 59.8374 25.5049 61.5476C25.9176 61.6399 26.3441 61.7043 26.7518 61.8017C27.4809 61.9756 27.6973 62.1797 26.9776 62.4405C26.4414 62.6345 26.0934 62.6454 25.5064 62.6847C18.1469 63.1755 13.5788 61.159 11.4741 56.9292C9.79392 53.5522 10.0417 49.516 10.296 46.0085C10.4743 43.5457 10.7926 41.12 11.1961 38.7142C12.1517 33.0028 13.2943 26.8646 14.6318 21.2083Z" fill="#ffffff" fill-rule="evenodd" opacity="1" stroke="none"/>
</g>
</svg>
